# xmcd CD database file
# Generated: Mon Jan 20 21:40:09 2003 by KSCD
# 
# Track frame offsets:
#       150
#       7935
#       31899
#       63210
#       81526
#       106645
#       125381
#       156671
#       181982
#       199532
#       214729
#       241953
#       263075
#
# Disc length: 3812 seconds
#
# Revision: 1
# Processed by: cddbd v1.4PL0 Copyright (c) Steve Scherf et al.
# Submitted via: Kscd 1.3.3
#
DISCID=a50ee20d
DTITLE=MONOKEL - die ersten 25 Jahre
DYEAR=1900
DGENRE=
TTITLE0=Happy Birthday
TTITLE1=Wolf
TTITLE2=Das Monster vom Schilkinsee
TTITLE3=Peter Gunn
TTITLE4=Kindertraum
TTITLE5=Boogie-Mobil
TTITLE6=Ahaha
TTITLE7=Hosen runter
TTITLE8=Wie die Großen
TTITLE9=Layla
TTITLE10=die Moldau
TTITLE11=Maggies Farm
TTITLE12=Bye Bye Lübben Sity
EXTD=
EXTT0=
EXTT1=
EXTT2=
EXTT3=
EXTT4=
EXTT5=
EXTT6=
EXTT7=
EXTT8=
EXTT9=
EXTT10=
EXTT11=
EXTT12=
PLAYORDER=
